<?xml version="1.0" encoding="UTF-8" standalone="no"?>
<!-- Created with Inkscape (http://www.inkscape.org/) -->

<svg
   width="239.33099"
   height="60"
   viewBox="0 0 239.33099 60"
   version="1.1"
   id="svg1"
   inkscape:version="1.4 (86a8ad7, 2024-10-11)"
   sodipodi:docname="Freem-dark.svg"
   xmlns:inkscape="http://www.inkscape.org/namespaces/inkscape"
   xmlns:sodipodi="http://sodipodi.sourceforge.net/DTD/sodipodi-0.dtd"
   xmlns="http://www.w3.org/2000/svg"
   xmlns:svg="http://www.w3.org/2000/svg">
  <sodipodi:namedview
     id="namedview1"
     pagecolor="#505050"
     bordercolor="#ffffff"
     borderopacity="1"
     inkscape:showpageshadow="0"
     inkscape:pageopacity="0"
     inkscape:pagecheckerboard="1"
     inkscape:deskcolor="#505050"
     inkscape:document-units="px"
     inkscape:zoom="2.0334082"
     inkscape:cx="192.04211"
     inkscape:cy="43.031202"
     inkscape:window-width="1920"
     inkscape:window-height="1009"
     inkscape:window-x="1912"
     inkscape:window-y="-8"
     inkscape:window-maximized="1"
     inkscape:current-layer="svg1" />
  <defs
     id="defs1">
    <rect
       x="80.676758"
       y="159.96252"
       width="367.21835"
       height="258.72202"
       id="rect2" />
  </defs>
  <text
     xml:space="preserve"
     style="font-weight:bold;font-size:83.682px;line-height:0;font-family:Outfit;-inkscape-font-specification:'Outfit Bold';text-align:start;writing-mode:lr-tb;direction:ltr;text-anchor:start;display:none;fill:#e5e5e5;fill-opacity:1;stroke:#ffffff;stroke-width:0;stroke-linecap:square"
     x="-5.6903777"
     y="59.07951"
     id="text2"
     inkscape:label="text"><tspan
       sodipodi:role="line"
       id="tspan2"
       x="0"
       y="0"
       style="fill:#e5e5e5;fill-opacity:1;stroke-width:0">Freem</tspan></text>
  <path
     d="M -1.7662048e-6,59.07951 V 1.8295288e-5 H 13.138072 V 59.07951 Z M 10.041838,35.899596 v -11.29707 h 29.539746 v 11.29707 z m 0,-24.602508 V 1.8295288e-5 H 40.920496 V 11.297088 Z M 48.200841,59.07951 V 18.410058 H 61.004187 V 59.07951 Z m 12.803346,-22.343094 -5.355648,-4.1841 q 1.589958,-7.11297 5.355648,-11.046024 3.76569,-3.933054 10.46025,-3.933054 2.92887,0 5.104602,0.920502 2.259414,0.83682 3.933054,2.677824 l -7.615062,9.62343 q -0.83682,-0.920502 -2.09205,-1.422594 -1.25523,-0.502092 -2.845188,-0.502092 -3.179916,0 -5.104602,2.008368 -1.841004,1.924686 -1.841004,5.85774 z m 41.841003,23.263596 q -6.610878,0 -11.799162,-2.677824 -5.104602,-2.761506 -8.033472,-7.615062 -2.92887,-4.853556 -2.92887,-10.962342 0,-6.108786 2.845188,-10.87866 2.92887,-4.853556 7.866108,-7.615062 4.937238,-2.761506 11.129708,-2.761506 6.0251,0 10.62761,2.594142 4.60251,2.594142 7.19665,7.196652 2.67783,4.60251 2.67783,10.543932 0,1.087866 -0.16737,2.343096 -0.0837,1.171548 -0.41841,2.761506 l -35.062754,0.08368 v -8.78661 l 29.623424,-0.08368 -5.52301,3.682008 q -0.0837,-3.514644 -1.08786,-5.774058 -1.00419,-2.343096 -3.01256,-3.514644 -1.92468,-1.25523 -4.76987,-1.25523 -3.012552,0 -5.271966,1.422594 -2.175732,1.338912 -3.430962,3.849372 -1.171548,2.51046 -1.171548,6.108786 0,3.598326 1.25523,6.192468 1.338912,2.51046 3.682008,3.933054 2.426778,1.338912 5.690378,1.338912 3.01255,0 5.43933,-1.004184 2.42678,-1.087866 4.26778,-3.179916 l 7.02929,7.029288 q -3.01255,3.514644 -7.28034,5.271966 -4.26778,1.757322 -9.37238,1.757322 z m 45.85777,0 q -6.61088,0 -11.79916,-2.677824 -5.1046,-2.761506 -8.03347,-7.615062 -2.92887,-4.853556 -2.92887,-10.962342 0,-6.108786 2.84519,-10.87866 2.92887,-4.853556 7.8661,-7.615062 4.93724,-2.761506 11.12971,-2.761506 6.0251,0 10.62761,2.594142 4.60251,2.594142 7.19666,7.196652 2.67782,4.60251 2.67782,10.543932 0,1.087866 -0.16736,2.343096 -0.0837,1.171548 -0.41841,2.761506 l -35.06276,0.08368 v -8.78661 l 29.62343,-0.08368 -5.52302,3.682008 q -0.0837,-3.514644 -1.08786,-5.774058 -1.00419,-2.343096 -3.01255,-3.514644 -1.92469,-1.25523 -4.76988,-1.25523 -3.01255,0 -5.27196,1.422594 -2.17574,1.338912 -3.43097,3.849372 -1.17154,2.51046 -1.17154,6.108786 0,3.598326 1.25523,6.192468 1.33891,2.51046 3.682,3.933054 2.42678,1.338912 5.69038,1.338912 3.01255,0 5.43933,-1.004184 2.42678,-1.087866 4.26778,-3.179916 l 7.02929,7.029288 q -3.01255,3.514644 -7.28033,5.271966 -4.26779,1.757322 -9.37239,1.757322 z M 174.47704,59.07951 V 18.410058 h 12.80335 V 59.07951 Z m 26.0251,0 V 35.313822 q 0,-3.096234 -1.92468,-4.769874 -1.84101,-1.757322 -4.60251,-1.757322 -1.92469,0 -3.43097,0.83682 -1.50627,0.753138 -2.42677,2.175732 -0.83682,1.422594 -0.83682,3.514644 l -4.93724,-2.175732 q 0,-4.853556 2.09205,-8.284518 2.09205,-3.514644 5.69037,-5.355648 3.59833,-1.924686 8.11716,-1.924686 4.26778,0 7.61506,1.924686 3.43096,1.924686 5.43933,5.355648 2.00837,3.430962 2.00837,8.200836 V 59.07951 Z m 26.0251,0 V 35.313822 q 0,-3.096234 -1.92468,-4.769874 -1.84101,-1.757322 -4.60251,-1.757322 -1.92469,0 -3.43096,0.83682 -1.50628,0.753138 -2.42678,2.175732 -0.83682,1.422594 -0.83682,3.514644 l -7.36402,-1.004184 q 0.16737,-5.188284 2.42678,-8.870292 2.3431,-3.76569 6.10879,-5.774058 3.84937,-2.09205 8.61924,-2.09205 4.68619,0 8.28452,2.008368 3.68201,1.924686 5.77406,5.606694 2.17573,3.598326 2.17573,8.702928 V 59.07951 Z"
     id="text1"
     style="font-weight:bold;font-size:83.682px;line-height:0;font-family:Outfit;-inkscape-font-specification:'Outfit Bold';fill:#e5e5e5;stroke:#ffffff;stroke-width:0;stroke-linecap:square;fill-opacity:1"
     inkscape:label="text"
     aria-label="Freem" />
</svg>
