<?xml version="1.0" encoding="UTF-8" standalone="no"?>
<!-- Created with Inkscape (http://www.inkscape.org/) -->

<svg
   width="310.98599"
   height="80"
   viewBox="0 0 310.98599 80"
   version="1.1"
   id="svg1"
   inkscape:version="1.4 (86a8ad7, 2024-10-11)"
   sodipodi:docname="word-mark-dark.svg"
   xmlns:inkscape="http://www.inkscape.org/namespaces/inkscape"
   xmlns:sodipodi="http://sodipodi.sourceforge.net/DTD/sodipodi-0.dtd"
   xmlns="http://www.w3.org/2000/svg"
   xmlns:svg="http://www.w3.org/2000/svg">
  <sodipodi:namedview
     id="namedview1"
     pagecolor="#505050"
     bordercolor="#ffffff"
     borderopacity="1"
     inkscape:showpageshadow="0"
     inkscape:pageopacity="0"
     inkscape:pagecheckerboard="1"
     inkscape:deskcolor="#505050"
     inkscape:document-units="px"
     inkscape:zoom="2.8756735"
     inkscape:cx="123.27547"
     inkscape:cy="40.859993"
     inkscape:window-width="1920"
     inkscape:window-height="1009"
     inkscape:window-x="1912"
     inkscape:window-y="-8"
     inkscape:window-maximized="1"
     inkscape:current-layer="svg1" />
  <defs
     id="defs1">
    <rect
       x="80.676758"
       y="159.96252"
       width="367.21835"
       height="258.72202"
       id="rect2" />
  </defs>
  <text
     xml:space="preserve"
     style="font-weight:bold;font-size:112.676px;line-height:0;font-family:Outfit;-inkscape-font-specification:'Outfit Bold';text-align:start;writing-mode:lr-tb;direction:ltr;text-anchor:start;display:none;fill:#1a1a1a;fill-opacity:1;stroke:#ffffff;stroke-width:0;stroke-linecap:square"
     x="-8.5633764"
     y="78.873199"
     id="text2"
     inkscape:label="text"><tspan
       sodipodi:role="line"
       id="tspan2"
       x="-8.5633764"
       y="78.873199"
       style="font-style:normal;font-variant:normal;font-weight:500;font-stretch:normal;font-family:Outfit;-inkscape-font-specification:'Outfit Medium';fill:#1a1a1a;fill-opacity:1;stroke-width:0">Freem</tspan></text>
  <path
     style="font-weight:500;font-size:112.676px;line-height:0;font-family:Outfit;-inkscape-font-specification:'Outfit Medium';fill:#1a1a1a;stroke:#ffffff;stroke-width:0;stroke-linecap:square;fill-opacity:1"
     d="M -2.3651123e-7,78.873199 V -2.2888184e-6 H 12.95774 V 78.873199 Z M 8.901404,45.070399 V 33.239418 h 40.112657 v 11.830981 z m 0,-33.239421 V -2.2888184e-6 H 50.929553 V 11.830978 Z M 62.084476,78.873199 V 24.788718 h 12.39436 v 54.084481 z m 12.39436,-30.084492 -4.281688,-2.140844 q 0,-10.253516 4.50704,-16.563373 4.619716,-6.422532 13.859149,-6.422532 4.056336,0 7.32394,1.464788 3.267604,1.464788 6.084503,4.732392 l -8.112671,8.338025 q -1.464788,-1.577464 -3.267604,-2.25352 -1.802816,-0.676057 -4.169012,-0.676057 -5.183097,0 -8.563377,3.267605 -3.38028,3.267604 -3.38028,10.253516 z m 57.014014,31.211252 q -8.11267,0 -14.64788,-3.605632 -6.42253,-3.718308 -10.25351,-10.14084 -3.71831,-6.422532 -3.71831,-14.422528 0,-7.999996 3.71831,-14.309852 3.7183,-6.422533 10.02816,-10.140841 6.42253,-3.718308 14.19718,-3.718308 7.54929,0 13.29576,3.492956 5.85916,3.492956 9.12676,9.577461 3.38028,6.084504 3.38028,13.859148 0,1.352112 -0.22535,2.8169 -0.11268,1.352112 -0.45071,3.042252 H 111.5492 v -10.14084 h 37.97181 l -4.61971,4.056336 q -0.22536,-4.957744 -1.9155,-8.338024 -1.69014,-3.38028 -4.84506,-5.183096 -3.04226,-1.802817 -7.5493,-1.802817 -4.73239,0 -8.22534,2.028169 -3.49296,2.028168 -5.40845,5.746476 -1.91549,3.605632 -1.91549,8.676052 0,5.07042 2.02816,8.901404 2.02817,3.830984 5.74648,5.971828 3.71831,2.028168 8.56338,2.028168 4.16901,0 7.66196,-1.464788 3.60564,-1.464788 6.08451,-4.281688 l 7.88732,7.999996 q -3.94366,4.619716 -9.57746,6.985912 -5.6338,2.366196 -11.94366,2.366196 z m 60.16904,0 q -8.11267,0 -14.64788,-3.605632 -6.42253,-3.718308 -10.25352,-10.14084 -3.71831,-6.422532 -3.71831,-14.422528 0,-7.999996 3.71831,-14.309852 3.71831,-6.422533 10.02817,-10.140841 6.42253,-3.718308 14.19717,-3.718308 7.5493,0 13.29577,3.492956 5.85915,3.492956 9.12676,9.577461 3.38028,6.084504 3.38028,13.859148 0,1.352112 -0.22535,2.8169 -0.11268,1.352112 -0.45071,3.042252 h -44.39434 v -10.14084 h 37.97181 l -4.61972,4.056336 q -0.22535,-4.957744 -1.91549,-8.338024 -1.69014,-3.38028 -4.84507,-5.183096 -3.04225,-1.802817 -7.54929,-1.802817 -4.73239,0 -8.22535,2.028169 -3.49295,2.028168 -5.40845,5.746476 -1.91549,3.605632 -1.91549,8.676052 0,5.07042 2.02817,8.901404 2.02817,3.830984 5.74648,5.971828 3.7183,2.028168 8.56337,2.028168 4.16902,0 7.66197,-1.464788 3.60563,-1.464788 6.08451,-4.281688 l 7.88732,7.999996 q -3.94366,4.619716 -9.57746,6.985912 -5.6338,2.366196 -11.94366,2.366196 z m 35.04227,-1.12676 V 24.788718 h 12.39436 v 54.084481 z m 35.94365,0 V 46.647863 q 0,-5.408448 -3.38028,-8.338024 -3.38028,-3.042253 -8.33803,-3.042253 -3.38028,0 -6.0845,1.352113 -2.59155,1.352112 -4.16901,3.94366 -1.57747,2.478872 -1.57747,6.084504 l -4.84507,-2.704224 q 0,-6.19718 2.70423,-10.704221 2.70422,-4.50704 7.32394,-6.985912 4.61971,-2.591548 10.36619,-2.591548 5.74648,0 10.36619,2.478872 4.61972,2.478872 7.32394,6.985912 2.70423,4.507041 2.70423,10.816897 v 34.92956 z m 35.94364,0 V 46.647863 q 0,-5.408448 -3.38028,-8.338024 -3.38028,-3.042253 -8.33802,-3.042253 -3.26761,0 -5.97183,1.352113 -2.70422,1.352112 -4.28169,3.94366 -1.57746,2.478872 -1.57746,6.084504 l -6.98591,-2.704224 q 0.56338,-6.19718 3.60563,-10.704221 3.04225,-4.50704 7.77464,-6.985912 4.84507,-2.591548 10.59155,-2.591548 5.85915,0 10.59154,2.478872 4.73239,2.478872 7.54929,6.985912 2.8169,4.507041 2.8169,10.816897 v 34.92956 z"
     id="text1"
     inkscape:label="text"
     aria-label="Freem" />
</svg>
